<svg width="20" height="18" viewBox="0 0 20 18" fill="none" xmlns="http://www.w3.org/2000/svg">
<path d="M1 3L3.5 1.5L6.5 1L9 3H11L13.5 1.5H17L19 4V6L18 8L17 10L10 16.5L4 11L1 7V3Z" fill="#FF3C3C"/>
<path d="M18.5826 1.81257C17.6375 0.889785 16.3319 0.428589 14.665 0.428589C14.2038 0.428589 13.733 0.508569 13.2532 0.668452C12.7732 0.828451 12.3267 1.04431 11.9141 1.31588C11.501 1.58737 11.146 1.84232 10.8481 2.08034C10.5506 2.31845 10.2678 2.57148 10 2.83926C9.73207 2.57148 9.44932 2.31845 9.1518 2.08034C8.85408 1.84232 8.4989 1.58752 8.08587 1.31588C7.67291 1.04419 7.22645 0.82849 6.74657 0.668452C6.26673 0.508608 5.79603 0.428589 5.33476 0.428589C3.66803 0.428589 2.36231 0.889902 1.4174 1.81257C0.472493 2.73516 0 4.01484 0 5.65174C0 6.15027 0.087564 6.66385 0.26234 7.19185C0.437116 7.72013 0.636285 8.17034 0.859456 8.54229C1.08259 8.9142 1.33562 9.27689 1.61837 9.63035C1.90112 9.98377 2.10775 10.2273 2.23781 10.3613C2.36798 10.4952 2.47032 10.592 2.54471 10.6516L9.5089 17.3704C9.64286 17.5043 9.80654 17.5715 9.99996 17.5715C10.1934 17.5715 10.3572 17.5043 10.4911 17.3704L17.4442 10.6737C19.1481 8.9701 20 7.29599 20 5.65158C20 4.01457 19.5275 2.735 18.5826 1.81257ZM16.4732 9.62476L10 15.8635L3.51577 9.6135C2.12436 8.22245 1.42878 6.9016 1.42878 5.65158C1.42878 5.049 1.50876 4.51693 1.66864 4.05573C1.82864 3.59446 2.03324 3.2279 2.28249 2.95633C2.53177 2.68469 2.83492 2.46351 3.19206 2.29226C3.54939 2.12115 3.89906 2.0058 4.24126 1.9463C4.58347 1.88688 4.94799 1.85713 5.33495 1.85713C5.7218 1.85713 6.13855 1.95189 6.58497 2.14168C7.03131 2.33139 7.44239 2.56949 7.81809 2.85591C8.19388 3.14252 8.51567 3.41034 8.78364 3.6595C9.05146 3.9089 9.27459 4.13755 9.45319 4.3459C9.58704 4.50966 9.76948 4.59151 10 4.59151C10.2307 4.59151 10.4129 4.50966 10.5469 4.3459C10.7255 4.13755 10.9488 3.90879 11.2166 3.6595C11.4844 3.41034 11.8063 3.14264 12.1819 2.85591C12.5577 2.56949 12.9688 2.33139 13.4153 2.14168C13.8616 1.95193 14.2785 1.85713 14.6654 1.85713C15.0522 1.85713 15.4167 1.88688 15.759 1.9463C16.1013 2.00576 16.451 2.12115 16.8082 2.29226C17.1654 2.46347 17.4685 2.68481 17.7177 2.95633C17.967 3.2279 18.1717 3.59446 18.3317 4.05573C18.4914 4.51693 18.5714 5.049 18.5714 5.65158C18.5713 6.9016 17.872 8.22612 16.4732 9.62476Z" fill="black"/>
</svg>
